<svg width="640" height="780" viewBox="0 0 640 780" xmlns="http://www.w3.org/2000/svg" role="img"
     aria-label="Premium geometric AM avatar">
    <defs>
        <linearGradient id="bg" x1="0" y1="0" x2="1" y2="1">
            <stop offset="0" stop-color="#1e293b"/>
            <stop offset="1" stop-color="#0f172a"/>
        </linearGradient>
        <linearGradient id="ring" x1="0" y1="0" x2="1" y2="1">
            <stop offset="0" stop-color="#dbeafe" stop-opacity="0.95"/>
            <stop offset="1" stop-color="#93c5fd" stop-opacity="0.45"/>
        </linearGradient>
    </defs>

    <rect width="640" height="780" rx="44" fill="url(#bg)"/>
    <circle cx="320" cy="322" r="160" fill="#111827"/>
    <circle cx="320" cy="322" r="152" fill="none" stroke="url(#ring)" stroke-width="4"/>
    <circle cx="320" cy="322" r="120" fill="#1e293b"/>

    <path d="M246 390 300 248h40l54 142h-34l-11-32h-58l-12 32h-33Zm54-58h40l-20-56-20 56Z" fill="#dbeafe"
          fill-opacity="0.95"/>
    <path d="M416 390V248h32l32 78 32-78h32v142h-30v-83l-25 62h-18l-25-62v83h-30Z" fill="#93c5fd" fill-opacity="0.88"/>

    <rect x="128" y="640" width="384" height="68" rx="34" fill="#111827"/>
    <text x="320" y="683" text-anchor="middle" fill="#cbd5e1" font-size="34" font-family="Inter, sans-serif"
          letter-spacing="10">AM
    </text>
</svg>
