<svg width="463" height="104" viewBox="0 0 463 104" fill="none" xmlns="http://www.w3.org/2000/svg">
    <circle cx="52" cy="50" r="50" fill="#151515"/>
    <circle cx="50" cy="54" r="50" fill="#151515" fill-opacity="0.15"/>
    <g filter="url(#filter0_d_535_200)">
        <circle cx="59" cy="36" r="30" fill="white"/>
    </g>
    <g filter="url(#filter1_d_535_200)">
        <path d="M55 30.5C51 31 44.5001 27 47.5001 20C49.5001 16.5 53.1469 13.9671 59 15C65.8 16.2 65.1667 22.1666 64 25M55 30.5L64 25M55 30.5C52.3333 36 51.5 47 59 51C67.5292 55.5489 75 50.4 79 46C81.7273 43 83.1 36.6 79.5 31C75.9 25.4 68.6667 24.6666 64 25"
              stroke="black" stroke-width="5" shape-rendering="crispEdges"/>
    </g>
    <g filter="url(#filter2_d_535_200)">
        <path d="M142.4 43H124.3V9.65H141.85C144.883 9.65 147.233 10.4833 148.9 12.15C150.6 13.7833 151.45 15.7833 151.45 18.15C151.45 20.1833 150.9 21.8833 149.8 23.25C148.7 24.6167 147.333 25.4667 145.7 25.8C147.5 26.0667 149.017 26.9833 150.25 28.55C151.483 30.1167 152.1 31.9333 152.1 34C152.1 36.6 151.25 38.75 149.55 40.45C147.85 42.15 145.467 43 142.4 43ZM140.3 23C141.5 23 142.45 22.6667 143.15 22C143.85 21.3333 144.2 20.4667 144.2 19.4C144.2 18.3333 143.833 17.4667 143.1 16.8C142.4 16.1 141.467 15.75 140.3 15.75H131.4V23H140.3ZM140.55 36.85C141.883 36.85 142.933 36.5167 143.7 35.85C144.467 35.15 144.85 34.2 144.85 33C144.85 31.9 144.467 30.9833 143.7 30.25C142.933 29.4833 141.883 29.1 140.55 29.1H131.4V36.85H140.55ZM164.554 43H157.454V9.65H164.554V43ZM192.375 43H171.175V9.65H178.275V36.75H192.375V43ZM218.547 43H197.347V9.65H204.447V36.75H218.547V43ZM230.619 43H223.519V9.65H230.619V43ZM268.339 43H260.239L258.189 37.35H243.889L241.789 43H233.689L246.589 9.65H255.489L268.339 43ZM256.239 31.1L251.039 16.75L245.839 31.1H256.239ZM298.419 43H290.269L283.719 31.15H278.519V43H271.419V9.65H287.019C290.452 9.65 293.169 10.65 295.169 12.65C297.202 14.65 298.219 17.2333 298.219 20.4C298.219 23.1333 297.502 25.35 296.069 27.05C294.669 28.75 292.952 29.8333 290.919 30.3L298.419 43ZM285.969 24.9C287.436 24.9 288.636 24.5 289.569 23.7C290.502 22.8667 290.969 21.7667 290.969 20.4C290.969 19.0333 290.502 17.95 289.569 17.15C288.636 16.3167 287.436 15.9 285.969 15.9H278.519V24.9H285.969ZM316.698 43H303.548V9.65H316.698C321.931 9.65 326.181 11.1833 329.448 14.25C332.748 17.3167 334.398 21.35 334.398 26.35C334.398 31.35 332.765 35.3833 329.498 38.45C326.231 41.4833 321.965 43 316.698 43ZM316.698 36.75C319.898 36.75 322.431 35.75 324.298 33.75C326.198 31.75 327.148 29.2833 327.148 26.35C327.148 23.2833 326.231 20.7833 324.398 18.85C322.565 16.8833 319.998 15.9 316.698 15.9H310.648V36.75H316.698ZM160.45 86H153.3V62.65L143.9 86H140.8L131.4 62.65V86H124.3V52.65H134.25L142.35 72.8L150.45 52.65H160.45V86ZM198.173 86H190.073L188.023 80.35H173.723L171.623 86H163.523L176.423 52.65H185.323L198.173 86ZM186.073 74.1L180.873 59.75L175.673 74.1H186.073ZM212.761 86.6C206.828 86.6 202.128 84.8333 198.661 81.3L202.511 75.9C205.378 78.9 208.911 80.4 213.111 80.4C214.945 80.4 216.361 80.05 217.361 79.35C218.395 78.6167 218.911 77.7333 218.911 76.7C218.911 75.8 218.428 75.05 217.461 74.45C216.528 73.85 215.345 73.4167 213.911 73.15C212.511 72.8833 210.978 72.5 209.311 72C207.645 71.5 206.095 70.9333 204.661 70.3C203.261 69.6667 202.078 68.6667 201.111 67.3C200.178 65.9333 199.711 64.2667 199.711 62.3C199.711 59.4333 200.861 57.0333 203.161 55.1C205.461 53.1333 208.528 52.15 212.361 52.15C217.661 52.15 221.995 53.7 225.361 56.8L221.411 62C218.778 59.5667 215.545 58.35 211.711 58.35C210.211 58.35 209.045 58.65 208.211 59.25C207.378 59.85 206.961 60.6667 206.961 61.7C206.961 62.5 207.428 63.1833 208.361 63.75C209.328 64.2833 210.511 64.6833 211.911 64.95C213.345 65.2167 214.878 65.6167 216.511 66.15C218.178 66.65 219.711 67.2333 221.111 67.9C222.545 68.5333 223.728 69.55 224.661 70.95C225.628 72.3167 226.111 73.9667 226.111 75.9C226.111 79.1 224.961 81.6833 222.661 83.65C220.395 85.6167 217.095 86.6 212.761 86.6ZM245.107 86H237.957V58.9H228.207V52.65H254.807V58.9H245.107V86ZM282.959 86H259.359V52.65H282.959V58.9H266.459V65.95H282.609V72.2H266.459V79.75H282.959V86ZM315.509 86H307.359L300.809 74.15H295.609V86H288.509V52.65H304.109C307.542 52.65 310.259 53.65 312.259 55.65C314.292 57.65 315.309 60.2333 315.309 63.4C315.309 66.1333 314.592 68.35 313.159 70.05C311.759 71.75 310.042 72.8333 308.009 73.3L315.509 86ZM303.059 67.9C304.526 67.9 305.726 67.5 306.659 66.7C307.592 65.8667 308.059 64.7667 308.059 63.4C308.059 62.0333 307.592 60.95 306.659 60.15C305.726 59.3167 304.526 58.9 303.059 58.9H295.609V67.9H303.059Z"
              fill="#6E1D26"/>
    </g>
    <defs>
        <filter id="filter0_d_535_200" x="25" y="6" width="68" height="68" filterUnits="userSpaceOnUse"
                color-interpolation-filters="sRGB">
            <feFlood flood-opacity="0" result="BackgroundImageFix"/>
            <feColorMatrix in="SourceAlpha" type="matrix" values="0 0 0 0 0 0 0 0 0 0 0 0 0 0 0 0 0 0 127 0"
                           result="hardAlpha"/>
            <feOffset dy="4"/>
            <feGaussianBlur stdDeviation="2"/>
            <feComposite in2="hardAlpha" operator="out"/>
            <feColorMatrix type="matrix" values="0 0 0 0 0 0 0 0 0 0 0 0 0 0 0 0 0 0 0.25 0"/>
            <feBlend mode="normal" in2="BackgroundImageFix" result="effect1_dropShadow_535_200"/>
            <feBlend mode="normal" in="SourceGraphic" in2="effect1_dropShadow_535_200" result="shape"/>
        </filter>
        <filter id="filter1_d_535_200" x="40.2334" y="12.2671" width="47.9399" height="51.0026"
                filterUnits="userSpaceOnUse" color-interpolation-filters="sRGB">
            <feFlood flood-opacity="0" result="BackgroundImageFix"/>
            <feColorMatrix in="SourceAlpha" type="matrix" values="0 0 0 0 0 0 0 0 0 0 0 0 0 0 0 0 0 0 127 0"
                           result="hardAlpha"/>
            <feOffset dy="4"/>
            <feGaussianBlur stdDeviation="2"/>
            <feComposite in2="hardAlpha" operator="out"/>
            <feColorMatrix type="matrix" values="0 0 0 0 0 0 0 0 0 0 0 0 0 0 0 0 0 0 0.25 0"/>
            <feBlend mode="normal" in2="BackgroundImageFix" result="effect1_dropShadow_535_200"/>
            <feBlend mode="normal" in="SourceGraphic" in2="effect1_dropShadow_535_200" result="shape"/>
        </filter>
        <filter id="filter2_d_535_200" x="120.3" y="9.65002" width="218.098" height="84.95" filterUnits="userSpaceOnUse"
                color-interpolation-filters="sRGB">
            <feFlood flood-opacity="0" result="BackgroundImageFix"/>
            <feColorMatrix in="SourceAlpha" type="matrix" values="0 0 0 0 0 0 0 0 0 0 0 0 0 0 0 0 0 0 127 0"
                           result="hardAlpha"/>
            <feOffset dy="4"/>
            <feGaussianBlur stdDeviation="2"/>
            <feComposite in2="hardAlpha" operator="out"/>
            <feColorMatrix type="matrix" values="0 0 0 0 0 0 0 0 0 0 0 0 0 0 0 0 0 0 0.25 0"/>
            <feBlend mode="normal" in2="BackgroundImageFix" result="effect1_dropShadow_535_200"/>
            <feBlend mode="normal" in="SourceGraphic" in2="effect1_dropShadow_535_200" result="shape"/>
        </filter>
    </defs>
</svg>
