<svg width="183" height="177" viewBox="0 0 183 177" fill="none" xmlns="http://www.w3.org/2000/svg">
    <path d="M91.5 5C139.431 5 178 42.54 178 88.5C178 134.46 139.431 172 91.5 172C43.5689 172 5 134.46 5 88.5C5 42.54 43.5689 5 91.5 5Z"
          stroke="white" stroke-width="10"/>
    <path d="M58.1289 165.027V144.203H87.7318V122.859H118.411V99.953H148.014V73.9236H175.464C178.694 84.8559 181.277 111.822 165.776 132.229C150.275 152.637 133.841 162.597 127.561 165.027C115.361 170.232 80.7348 173.877 58.1289 165.027Z"
          fill="white" stroke="white" stroke-width="7" stroke-linecap="round"/>
    <path d="M68.8945 135.353V97.8707" stroke="#ADBDAF" stroke-width="10" stroke-linecap="round"/>
    <path d="M78.2921 88.7683L73.3543 87.982L71.7818 97.8576L76.7196 98.6438L78.2921 88.7683ZM94.7294 96.4487H99.7294V92.1819L95.5157 91.5109L94.7294 96.4487ZM89.7294 112.447C89.7294 115.209 91.968 117.447 94.7294 117.447C97.4908 117.447 99.7294 115.209 99.7294 112.447H89.7294ZM77.5059 93.7061L76.7196 98.6438L93.9431 101.386L94.7294 96.4487L95.5157 91.5109L78.2921 88.7683L77.5059 93.7061ZM94.7294 96.4487H89.7294V112.447H94.7294H99.7294V96.4487H94.7294Z"
          fill="#ADBDAF"/>
    <path d="M63.5117 94.2265L78.0441 88.5L83.9647 97.35H63.5117V94.2265Z" fill="#ADBDAF"/>
    <g filter="url(#filter0_d_535_117)">
        <path d="M69.9708 67.6765L54.3619 79.65L52.209 92.1442" stroke="white" stroke-width="10"
              stroke-linecap="round"/>
    </g>
    <path d="M65.6641 92.6647L77.4859 88.4054V70.8054C77.6572 67.6801 76.7663 61.4294 71.832 61.4294C66.8976 61.4294 65.6641 67.055 65.6641 69.8678V92.6647Z"
          fill="white" stroke="white" stroke-width="4" stroke-linecap="round"/>
    <g filter="url(#filter1_d_535_117)">
        <path d="M72.123 70.8L81.9091 80.1706H95.8054" stroke="white" stroke-width="10" stroke-linecap="round"/>
    </g>
    <ellipse cx="71.5853" cy="49.4558" rx="8.07353" ry="7.80882" fill="white"/>
    <defs>
        <filter id="filter0_d_535_117" x="43.208" y="62.6763" width="35.7632" height="42.4688"
                filterUnits="userSpaceOnUse" color-interpolation-filters="sRGB">
            <feFlood flood-opacity="0" result="BackgroundImageFix"/>
            <feColorMatrix in="SourceAlpha" type="matrix" values="0 0 0 0 0 0 0 0 0 0 0 0 0 0 0 0 0 0 127 0"
                           result="hardAlpha"/>
            <feOffset dy="4"/>
            <feGaussianBlur stdDeviation="2"/>
            <feComposite in2="hardAlpha" operator="out"/>
            <feColorMatrix type="matrix" values="0 0 0 0 0 0 0 0 0 0 0 0 0 0 0 0 0 0 0.25 0"/>
            <feBlend mode="normal" in2="BackgroundImageFix" result="effect1_dropShadow_535_117"/>
            <feBlend mode="normal" in="SourceGraphic" in2="effect1_dropShadow_535_117" result="shape"/>
        </filter>
        <filter id="filter1_d_535_117" x="63.123" y="65.8" width="41.6821" height="27.3706" filterUnits="userSpaceOnUse"
                color-interpolation-filters="sRGB">
            <feFlood flood-opacity="0" result="BackgroundImageFix"/>
            <feColorMatrix in="SourceAlpha" type="matrix" values="0 0 0 0 0 0 0 0 0 0 0 0 0 0 0 0 0 0 127 0"
                           result="hardAlpha"/>
            <feOffset dy="4"/>
            <feGaussianBlur stdDeviation="2"/>
            <feComposite in2="hardAlpha" operator="out"/>
            <feColorMatrix type="matrix" values="0 0 0 0 0 0 0 0 0 0 0 0 0 0 0 0 0 0 0.25 0"/>
            <feBlend mode="normal" in2="BackgroundImageFix" result="effect1_dropShadow_535_117"/>
            <feBlend mode="normal" in="SourceGraphic" in2="effect1_dropShadow_535_117" result="shape"/>
        </filter>
    </defs>
</svg>
