<svg width="148" height="108" viewBox="0 0 148 108" fill="none" xmlns="http://www.w3.org/2000/svg">
    <path d="M108 3C128.486 3 144.999 19.2914 145 39.2725C145 59.2537 128.486 75.5459 108 75.5459C87.5128 75.5459 70.9995 59.2537 70.9995 39.2725C70.9997 19.2914 87.5129 3 108 3Z"
          stroke="white" stroke-width="6"/>
    <path d="M40 3C60.4866 3 76.9999 19.2914 77 39.2725C77 59.2537 60.4867 75.5459 40 75.5459C19.5133 75.5459 3 59.2537 3 39.2725C3.00015 19.2914 19.5134 3 40 3Z"
          stroke="white" stroke-width="6"/>
    <path d="M76.0005 32.4546C96.4871 32.4546 113 48.7459 113 68.727C113 88.7082 96.4872 105 76.0005 105C55.5138 105 39.0005 88.7082 39.0005 68.727C39.0006 48.7459 55.5139 32.4546 76.0005 32.4546Z"
          fill="#A8C3A9" stroke="white" stroke-width="6"/>
</svg>
