<svg width="183" height="178" viewBox="0 0 183 178" fill="none" xmlns="http://www.w3.org/2000/svg">
    <path d="M135.188 41.4879L130.226 50.5859C130.083 50.8481 129.83 51.0327 129.537 51.0891L118.795 53.1547C118.019 53.304 117.715 54.2524 118.259 54.8255L126.157 63.1386C126.373 63.3662 126.47 63.6821 126.418 63.9917L125.5 69.5L124.77 74.6106C124.656 75.4092 125.486 76.0072 126.207 75.6465L136.062 70.7191C136.338 70.5809 136.663 70.5783 136.942 70.712L147.226 75.6483C147.963 76.0023 148.791 75.3691 148.642 74.5647L146.596 63.5172C146.536 63.1934 146.639 62.8609 146.872 62.628L154.667 54.8331C155.234 54.2659 154.936 53.2954 154.149 53.144L143.423 51.0814C143.153 51.0295 142.916 50.8684 142.769 50.6363L136.91 41.4299C136.501 40.7875 135.553 40.8195 135.188 41.4879Z"
          fill="#ADBDAF" stroke="#ADBDAF" stroke-width="4" stroke-linecap="round"/>
    <path d="M90.1884 16.4879L85.2259 25.5859C85.0828 25.8481 84.8301 26.0327 84.5368 26.0891L73.7954 28.1547C73.0191 28.304 72.7148 29.2524 73.2592 29.8255L81.1567 38.1386C81.3729 38.3662 81.4697 38.6821 81.418 38.9917L80.5 44.5L79.7699 49.6106C79.6558 50.4092 80.4856 51.0072 81.2071 50.6465L91.0618 45.7191C91.3382 45.5809 91.6631 45.5783 91.9417 45.712L102.226 50.6483C102.963 51.0023 103.791 50.3691 103.642 49.5647L101.596 38.5172C101.536 38.1934 101.639 37.8609 101.872 37.628L109.667 29.8331C110.234 29.2659 109.936 28.2954 109.149 28.144L98.4234 26.0814C98.1531 26.0295 97.9163 25.8684 97.7685 25.6363L91.91 16.4299C91.5012 15.7875 90.553 15.8195 90.1884 16.4879Z"
          fill="#ADBDAF" stroke="#ADBDAF" stroke-width="4" stroke-linecap="round"/>
    <path d="M45.1884 41.4879L40.2259 50.5859C40.0828 50.8481 39.8301 51.0327 39.5368 51.0891L28.7954 53.1547C28.0191 53.304 27.7148 54.2524 28.2592 54.8255L36.1567 63.1386C36.3729 63.3662 36.4697 63.6821 36.418 63.9917L35.5 69.5L34.7699 74.6106C34.6558 75.4092 35.4856 76.0072 36.2071 75.6465L46.0618 70.7191C46.3382 70.5809 46.6631 70.5783 46.9417 70.712L57.2256 75.6483C57.9632 76.0023 58.7906 75.3691 58.6416 74.5647L56.5958 63.5172C56.5358 63.1934 56.6391 62.8609 56.872 62.628L64.6669 54.8331C65.2341 54.2659 64.9363 53.2954 64.1487 53.144L53.4234 51.0814C53.1531 51.0295 52.9163 50.8684 52.7685 50.6363L46.91 41.4299C46.5012 40.7875 45.553 40.8195 45.1884 41.4879Z"
          fill="#ADBDAF" stroke="#ADBDAF" stroke-width="4" stroke-linecap="round"/>
    <path d="M91.5 5C139.431 5 178 42.54 178 88.5C178 134.46 139.431 172 91.5 172C43.5689 172 5 134.46 5 88.5C5 42.54 43.5689 5 91.5 5Z"
          stroke="white" stroke-width="10"/>
    <circle cx="92" cy="80" r="20" fill="white"/>
    <path d="M46.0126 155.891V136.038C45.7263 128.455 50.2214 113.124 70.4922 112.463C90.763 111.801 92.9676 112.187 91.5361 112.463V172.021C85.8098 172.297 68.6884 169.457 46.0126 155.891Z"
          fill="white" stroke="white" stroke-width="10" stroke-linecap="round"/>
    <path d="M137.409 155.974V136.121C137.696 128.539 133.201 113.208 112.93 112.546C92.6588 111.884 87.0979 111.906 88.5294 112.181L91.8858 172.105C97.612 172.38 114.733 169.54 137.409 155.974Z"
          fill="white" stroke="white" stroke-width="10" stroke-linecap="round"/>
    <path d="M117 137.5V159" stroke="#ADBDAF" stroke-width="2" stroke-linecap="round"/>
    <path d="M65.5 138V158.5" stroke="#ADBDAF" stroke-width="2" stroke-linecap="round"/>
</svg>
