<svg width="183" height="177" viewBox="0 0 183 177" fill="none" xmlns="http://www.w3.org/2000/svg">
    <path d="M91.5 5C139.431 5 178 42.54 178 88.5C178 134.46 139.431 172 91.5 172C43.5689 172 5 134.46 5 88.5C5 42.54 43.5689 5 91.5 5Z"
          stroke="white" stroke-width="10"/>
    <circle cx="91" cy="108" r="14" fill="white"/>
    <path d="M62.008 160.29V147.042C61.8263 141.981 64.6791 131.75 77.5439 131.309C90.4087 130.867 91.8078 131.125 90.8993 131.309V171.055C87.2652 171.239 76.3991 169.344 62.008 160.29Z"
          fill="white" stroke="white" stroke-width="10" stroke-linecap="round"/>
    <path d="M120.012 160.346V147.097C120.193 142.037 117.34 131.806 104.476 131.364C91.6108 130.923 88.0816 130.937 88.9901 131.121L91.1202 171.111C94.7543 171.295 105.62 169.399 120.012 160.346Z"
          fill="white" stroke="white" stroke-width="10" stroke-linecap="round"/>
    <path d="M107.059 148.017V162.365" stroke="#ADBDAF" stroke-width="2" stroke-linecap="round"/>
    <path d="M74.375 148.351V162.032" stroke="#ADBDAF" stroke-width="2" stroke-linecap="round"/>
    <path d="M89.5 23L149.19 79.8671C149.388 80.0558 149.5 80.3175 149.5 80.5911V148.652C149.5 148.926 149.399 149.179 149.196 149.364C141.986 155.905 115.023 171.19 88.2118 170C61.2998 168.806 42.2112 158.365 32.3187 149.374C32.1123 149.186 32 148.923 32 148.644V88.6689C32 88.5571 32.0188 88.4461 32.0555 88.3404L36 77"
          stroke="white" stroke-width="10" stroke-linecap="round"/>
    <path d="M65 15C86.7609 15 104 31.7821 104 52C104 72.2179 86.7609 89 65 89C43.2391 89 26 72.2179 26 52C26 31.7821 43.2391 15 65 15Z"
          stroke="white" stroke-width="10"/>
    <path d="M64.1992 28.3271V53.5271L85.4992 66" stroke="white" stroke-width="10" stroke-linecap="round"/>
</svg>
