<?xml version="1.0" standalone="no"?>
<!DOCTYPE svg PUBLIC "-//W3C//DTD SVG 20010904//EN"
 "http://www.w3.org/TR/2001/REC-SVG-20010904/DTD/svg10.dtd">
<svg version="1.0" xmlns="http://www.w3.org/2000/svg"
 width="1280.000000pt" height="1184.000000pt" viewBox="0 0 1280.000000 1184.000000"
 preserveAspectRatio="xMidYMid meet">
<g transform="translate(0.000000,1184.000000) scale(0.100000,-0.100000)"
fill="#000000" stroke="none">
<path d="M5215 11829 c-44 -4 -152 -13 -240 -19 -321 -23 -643 -72 -745 -112
-162 -64 -281 -143 -315 -209 -38 -73 2 -144 116 -204 116 -60 154 -90 305
-236 151 -147 219 -197 303 -225 l52 -17 122 61 c151 75 260 120 402 165 216
69 490 117 663 117 114 -1 169 -23 309 -128 60 -44 127 -89 150 -101 84 -42
120 -45 528 -46 557 0 561 -1 789 -259 74 -84 100 -99 234 -141 112 -35 147
-60 224 -163 141 -188 448 -687 455 -740 3 -25 -5 -68 -27 -136 -38 -119 -41
-171 -11 -219 34 -56 138 -146 282 -247 190 -133 216 -153 286 -222 l63 -61
31 69 c151 333 106 765 -131 1249 -95 195 -175 312 -289 425 -164 163 -314
266 -761 525 -140 81 -352 207 -470 279 -324 199 -450 269 -610 341 -305 138
-588 205 -990 235 -80 6 -186 15 -237 20 -105 11 -371 11 -488 -1z"/>
<path d="M5695 10964 c-233 -23 -490 -91 -711 -190 -50 -22 -56 -28 -39 -35
11 -4 41 -8 66 -8 65 -1 123 -24 188 -74 112 -85 121 -88 460 -177 357 -93
387 -108 442 -211 18 -33 51 -76 73 -95 52 -44 366 -235 426 -258 25 -10 113
-33 195 -51 187 -42 233 -56 289 -89 78 -45 113 -97 153 -226 42 -137 75 -205
156 -323 33 -48 57 -90 53 -94 -3 -3 -72 6 -153 20 -253 45 -342 52 -643 52
-304 -1 -432 -12 -700 -61 -369 -68 -751 -197 -1055 -358 -727 -384 -1227
-1021 -1535 -1959 -23 -71 -40 -130 -38 -132 7 -7 125 52 201 101 249 161 343
287 462 619 117 330 210 452 461 611 170 107 350 189 769 349 163 63 204 86
340 194 180 143 256 161 501 120 113 -20 173 -24 319 -23 212 1 315 19 520 90
290 102 337 115 419 121 131 9 186 -15 416 -180 182 -131 327 -197 436 -197
73 0 206 27 281 57 34 14 69 23 76 20 15 -6 195 -356 282 -552 324 -724 462
-1362 427 -1975 -7 -113 -16 -297 -22 -410 -32 -647 -199 -1140 -545 -1606
-439 -591 -1003 -997 -1667 -1198 -175 -53 -298 -76 -443 -83 -394 -18 -777
111 -1260 425 -486 316 -721 607 -805 997 -34 156 -39 459 -11 624 67 392 273
751 641 1121 468 470 1003 675 1580 606 489 -59 865 -249 1060 -536 131 -194
194 -407 194 -665 0 -165 -18 -269 -73 -424 -136 -388 -443 -697 -873 -883
-236 -102 -476 -119 -783 -57 -222 45 -355 109 -475 229 -121 121 -163 237
-126 352 71 220 324 449 701 633 173 85 277 126 464 185 81 26 128 46 120 50
-79 42 -346 47 -499 10 -240 -58 -513 -187 -721 -341 -82 -61 -201 -185 -253
-263 -87 -132 -125 -303 -97 -435 56 -261 294 -549 541 -652 144 -61 223 -73
460 -74 211 0 217 1 342 33 258 67 638 230 882 379 299 184 556 441 656 655
53 114 62 165 62 368 -1 317 -53 565 -173 816 -221 464 -698 834 -1209 938
-121 24 -342 39 -490 32 -646 -32 -1192 -266 -1620 -695 -355 -356 -578 -734
-661 -1121 -19 -88 -23 -135 -23 -285 0 -218 14 -290 108 -570 211 -627 477
-1018 875 -1284 315 -211 671 -348 1061 -408 161 -24 556 -24 725 0 470 69
881 253 1282 573 133 106 394 363 512 504 239 284 437 619 605 1023 140 335
202 549 261 903 42 247 64 335 151 612 110 351 134 465 134 642 -1 263 -69
437 -351 895 -171 277 -229 386 -278 516 -38 103 -40 105 -106 155 -75 57
-266 177 -387 245 -43 24 -78 48 -78 53 0 6 11 33 25 60 52 102 43 169 -33
245 -33 33 -62 51 -96 61 -59 16 -103 59 -158 154 -56 95 -62 123 -43 195 32
123 13 258 -52 384 -59 113 -96 137 -434 295 -238 111 -349 220 -440 432 l-36
85 -69 24 c-103 36 -298 40 -501 12 -299 -42 -416 -38 -532 16 -78 37 -172
133 -196 201 -27 74 -66 117 -128 140 -54 20 -163 32 -232 26z"/>
<path d="M11675 9424 c-119 -26 -159 -51 -292 -183 l-122 -120 42 -36 c61 -53
165 -101 246 -115 144 -24 345 35 527 156 61 41 164 131 164 144 0 14 -191
117 -260 141 -85 28 -212 34 -305 13z m163 -180 c34 -22 28 -52 -13 -70 -67
-28 -125 -16 -125 26 0 61 73 84 138 44z"/>
<path d="M12355 9167 c-38 -29 -120 -91 -181 -138 -122 -92 -200 -135 -315
-172 -161 -53 -229 -62 -454 -62 -231 1 -315 13 -508 76 -113 36 -130 33 -206
-36 -60 -55 -108 -131 -165 -263 l-48 -112 84 -168 c45 -92 103 -212 127 -265
60 -133 103 -174 278 -267 215 -114 225 -122 365 -310 88 -118 115 -132 272
-138 134 -5 168 4 233 65 l30 28 -18 120 c-70 464 -6 807 190 1016 84 91 191
157 319 199 123 39 275 70 351 70 58 0 61 1 67 28 3 15 10 40 15 56 14 44 11
80 -12 141 -38 101 -92 144 -218 171 -111 23 -128 20 -206 -39z"/>
<path d="M12505 8642 c-82 -25 -188 -82 -262 -142 -138 -112 -173 -306 -103
-572 36 -136 42 -145 76 -107 10 12 83 64 161 116 79 52 154 108 168 125 15
17 45 68 67 112 39 77 41 88 49 201 4 76 15 145 29 189 14 45 18 72 12 78 -19
19 -134 19 -197 0z m-43 -259 c22 -20 23 -42 2 -71 -18 -26 -53 -28 -94 -7
-30 15 -48 54 -35 75 20 32 93 34 127 3z"/>
<path d="M6965 8554 c-38 -8 -169 -48 -290 -89 -121 -40 -245 -79 -276 -85
-67 -15 -202 -9 -349 15 -212 34 -322 1 -640 -195 -213 -131 -291 -166 -523
-232 -324 -92 -413 -132 -513 -233 -69 -71 -132 -185 -213 -388 -60 -150 -89
-209 -183 -374 -134 -236 -239 -509 -297 -773 -55 -250 -53 -260 20 -138 72
123 273 417 364 533 293 376 632 703 960 927 377 257 761 414 1160 474 159 24
453 24 620 1 785 -111 1463 -567 1925 -1296 79 -125 211 -374 261 -493 17 -43
36 -78 40 -78 5 0 9 3 9 8 -1 64 -24 378 -35 472 -70 604 -249 1069 -506 1315
-125 120 -243 172 -542 241 -84 19 -179 48 -212 64 -33 16 -102 66 -154 112
-159 142 -194 169 -251 196 -49 23 -69 26 -180 29 -84 2 -148 -2 -195 -13z"/>
<path d="M10040 8224 c-203 -99 -225 -104 -436 -104 -94 0 -186 -3 -203 -6
l-31 -7 27 -46 c63 -109 140 -202 345 -419 273 -288 330 -395 372 -697 26
-180 49 -251 140 -434 46 -91 87 -184 90 -206 4 -22 10 -99 15 -172 10 -160
24 -193 97 -235 61 -34 159 -49 275 -41 75 6 81 8 91 32 6 17 8 98 3 227 -6
171 -4 206 9 238 36 85 305 450 436 590 l63 67 -21 37 c-11 20 -30 75 -42 121
-12 47 -28 97 -35 112 -21 40 -91 94 -285 221 -277 182 -306 212 -426 440 -85
161 -90 167 -196 250 -42 33 -84 70 -93 84 -8 13 -21 24 -28 24 -6 0 -82 -34
-167 -76z"/>
<path d="M6435 7764 c-22 -2 -74 -9 -115 -15 -525 -75 -1012 -287 -1435 -623
-136 -108 -494 -468 -641 -646 -472 -566 -628 -851 -1125 -2056 -83 -203 -164
-394 -179 -425 -40 -79 -57 -148 -70 -283 -6 -65 -20 -146 -31 -179 -51 -152
-187 -296 -441 -465 -53 -36 -85 -66 -103 -95 -32 -55 -32 -72 3 -106 43 -43
88 -45 269 -11 468 89 602 64 834 -154 62 -59 62 -59 41 -76 -32 -27 -133 -48
-287 -60 -244 -19 -314 -43 -385 -133 -80 -100 -112 -196 -130 -385 -6 -64
-17 -144 -25 -177 -7 -33 -12 -62 -9 -64 6 -6 152 26 263 59 313 91 756 228
876 270 77 28 144 50 148 50 25 0 -8 -42 -120 -151 -310 -302 -720 -544 -1335
-789 -221 -88 -217 -86 -218 -160 -1 -70 -30 -172 -74 -260 -25 -49 -42 -90
-36 -90 34 0 821 389 1041 515 156 90 422 263 603 394 69 50 131 91 136 91 15
0 12 -21 -15 -106 -41 -127 -137 -309 -223 -424 -89 -117 -273 -301 -374 -373
-147 -105 -296 -174 -676 -311 -316 -115 -387 -143 -526 -209 l-108 -51 6 -43
c14 -101 77 -170 184 -203 93 -27 146 -25 282 9 248 63 536 215 934 494 264
185 885 760 1146 1061 52 61 111 127 130 148 l35 39 135 -57 c616 -256 1155
-400 1740 -465 68 -8 230 -13 400 -13 234 1 314 5 445 23 334 45 550 102 897
237 538 209 786 339 1061 556 207 163 499 477 683 734 199 280 402 693 514
1052 18 56 38 102 45 102 15 0 131 -215 183 -341 82 -198 95 -281 77 -473 -15
-163 -8 -238 35 -386 38 -127 59 -337 60 -580 0 -209 -12 -340 -52 -560 -25
-133 -32 -204 -33 -295 0 -136 17 -225 43 -225 24 0 156 74 229 127 153 113
219 297 163 458 -44 128 -17 194 188 469 224 299 295 420 328 563 34 145 2
246 -164 520 -87 144 -114 206 -132 302 -13 73 -10 98 37 331 42 207 41 284
-2 420 -74 233 -206 400 -525 664 -85 71 -167 139 -181 151 l-27 23 6 266 c3
146 2 266 -2 266 -4 0 -26 -13 -49 -28 -23 -16 -98 -59 -167 -97 -319 -174
-381 -254 -358 -467 8 -83 39 -161 111 -280 128 -213 152 -427 59 -530 -48
-54 -118 -87 -302 -142 -176 -54 -232 -81 -300 -146 -69 -65 -93 -118 -98
-216 -5 -101 5 -162 64 -379 43 -159 46 -176 41 -260 -16 -288 -128 -372 -537
-405 -74 -6 -157 -17 -185 -25 -82 -24 -148 -86 -291 -275 -201 -266 -444
-449 -681 -510 -174 -45 -362 -44 -803 5 -541 59 -674 47 -1000 -89 -146 -60
-194 -67 -510 -73 -392 -7 -438 2 -650 124 l-65 38 -182 1 c-212 2 -266 14
-400 90 -161 92 -181 113 -335 369 -519 860 -660 1207 -675 1660 -9 292 29
451 213 879 238 557 472 958 748 1281 100 118 358 371 521 510 338 291 655
467 954 530 322 68 889 6 1287 -140 656 -241 1132 -735 1243 -1293 54 -269 54
-558 -1 -811 -148 -691 -778 -1233 -1703 -1465 -611 -153 -1168 -29 -1545 344
-156 154 -265 340 -289 491 -32 197 95 539 298 804 262 342 699 615 1090 680
145 25 368 16 501 -18 246 -64 381 -160 411 -294 22 -95 -16 -189 -119 -295
-148 -154 -400 -284 -872 -449 l-165 -58 95 0 c52 -1 157 6 232 14 569 60 984
267 1130 562 39 78 43 95 46 174 7 177 -80 356 -256 520 -137 128 -313 217
-522 262 -138 30 -376 29 -516 -1 -373 -81 -772 -312 -1105 -642 -258 -256
-449 -546 -510 -776 -30 -112 -37 -345 -14 -469 79 -428 355 -758 812 -972
543 -253 1142 -243 1843 34 322 127 536 241 740 394 389 293 642 688 728 1139
47 241 54 621 17 870 -98 660 -441 1198 -1005 1575 -284 190 -573 307 -890
360 -90 16 -399 27 -485 19z"/>
<path d="M3216 6462 c-10 -17 -37 -138 -65 -296 -36 -202 -59 -258 -135 -318
-75 -60 -144 -89 -229 -95 -75 -5 -513 53 -1147 153 -363 57 -524 74 -731 74
-476 0 -772 -92 -863 -269 -25 -47 -46 -114 -46 -145 0 -44 47 -191 87 -269
30 -60 37 -68 56 -62 108 32 512 128 627 149 566 102 1029 97 1435 -15 123
-33 145 -43 130 -58 -6 -5 -127 -33 -270 -61 -491 -98 -905 -200 -1272 -316
-208 -65 -285 -94 -281 -103 2 -3 34 -57 71 -119 48 -79 82 -122 114 -147 69
-53 81 -53 165 -4 259 152 587 268 883 315 148 23 450 23 595 1 188 -30 285
-56 269 -72 -4 -3 -55 -15 -115 -26 -255 -48 -579 -143 -864 -254 -169 -66
-440 -185 -440 -194 0 -3 17 -16 38 -27 20 -12 72 -53 115 -90 216 -190 263
-214 413 -214 204 0 341 49 488 175 54 46 117 94 141 105 24 12 96 32 162 46
174 37 274 88 382 195 68 68 123 149 172 253 52 109 251 712 283 856 80 364
47 622 -104 793 -41 46 -54 54 -64 39z"/>
<path d="M10000 6399 c0 -3 -16 -98 -35 -211 -262 -1561 -884 -2755 -1784
-3422 -377 -280 -790 -431 -1326 -487 -154 -16 -507 -16 -655 0 -571 60 -1058
247 -1440 551 -104 83 -295 279 -371 380 -256 342 -419 754 -485 1228 -20 142
-24 143 -74 19 -58 -144 -74 -241 -74 -442 0 -148 4 -200 23 -295 80 -404 296
-806 591 -1100 138 -139 203 -170 513 -250 178 -45 254 -77 430 -181 149 -89
305 -163 372 -178 134 -30 375 -39 570 -21 236 22 407 54 830 157 353 86 386
89 580 54 355 -65 441 -35 815 279 136 114 215 169 495 349 230 148 356 270
435 423 60 114 84 186 150 437 81 308 123 427 176 497 15 19 63 65 108 101
117 96 195 173 216 213 56 109 74 337 46 595 -29 269 -45 495 -56 795 -9 258
-30 493 -45 508 -3 3 -5 3 -5 1z"/>
<path d="M11320 5354 c0 -3 35 -63 78 -132 156 -251 278 -496 399 -797 35 -88
71 -187 79 -220 8 -33 21 -152 29 -265 16 -226 27 -279 115 -555 128 -398 137
-537 55 -795 -19 -58 -45 -145 -59 -194 -37 -127 -57 -153 -189 -240 -170
-111 -200 -156 -228 -336 -12 -79 -9 -124 18 -237 24 -103 12 -137 -81 -228
-84 -84 -195 -168 -447 -338 l-186 -126 -6 -113 c-6 -116 2 -222 22 -294 13
-50 44 -97 121 -184 31 -36 71 -86 88 -112 87 -128 156 -115 266 51 24 36 84
111 132 166 274 312 378 465 726 1069 167 289 214 477 253 1016 9 118 30 346
47 505 26 239 31 331 32 525 0 458 -47 607 -338 1070 -168 267 -233 357 -331
456 -122 125 -296 226 -493 288 -86 27 -102 30 -102 20z"/>
<path d="M7600 5067 c-100 -133 -304 -341 -411 -421 -327 -242 -709 -322
-1159 -242 -41 8 -79 10 -83 6 -18 -16 16 -101 59 -149 80 -89 222 -132 429
-132 148 0 265 20 416 71 394 131 672 390 788 732 29 87 57 216 50 236 -2 7
-42 -39 -89 -101z"/>
</g>
</svg>
